# xmcd
#
# Track frame offsets:
#	150
#	19220
#	39205
#	65477
#
# Disc length: 1025 seconds
#
# Revision: 4
# Processed by: cddbd v1.5.2PL0 Copyright (c) Steve Scherf et al.
# Submitted via: audiograbber 1.83.01
#
DISCID=2a03ff04
DTITLE=Shivaree -  I Oughtta Give You A Shot In The Head For Making Me Live In 
DTITLE=This Dump EP
DYEAR=2000
DGENRE=Blues
TTITLE0=Goodnight Moon (Live)
TTITLE1=I Don't Care (Live)
TTITLE2=Scrub
TTITLE3=My Boy Lollipop
EXTD=
EXTT0=
EXTT1=
EXTT2=
EXTT3=
PLAYORDER=
